<svg width="1200" height="820" viewBox="0 0 1200 820" fill="none" xmlns="http://www.w3.org/2000/svg">
  <rect width="1200" height="820" rx="38" fill="#F3ECE2"/>
  <rect x="44" y="44" width="1112" height="732" rx="28" fill="#FFFDF9"/>
  <rect x="76" y="76" width="248" height="668" rx="24" fill="#195D4D"/>
  <rect x="108" y="132" width="138" height="18" rx="9" fill="#F0E6D8"/>
  <rect x="108" y="176" width="184" height="14" rx="7" fill="#D1E0DA"/>
  <rect x="108" y="212" width="162" height="14" rx="7" fill="#D1E0DA"/>
  <rect x="108" y="248" width="176" height="14" rx="7" fill="#D1E0DA"/>
  <rect x="356" y="92" width="340" height="190" rx="24" fill="#F7F2EA"/>
  <rect x="388" y="132" width="180" height="20" rx="10" fill="#1F1A16"/>
  <rect x="388" y="172" width="124" height="54" rx="18" fill="#195D4D"/>
  <rect x="530" y="172" width="134" height="54" rx="18" fill="#E9DFD0"/>
  <rect x="728" y="92" width="388" height="190" rx="24" fill="#1F1A16"/>
  <rect x="760" y="132" width="164" height="20" rx="10" fill="#F3ECE2"/>
  <rect x="760" y="172" width="324" height="14" rx="7" fill="#8F877E"/>
  <rect x="760" y="206" width="280" height="14" rx="7" fill="#8F877E"/>
  <rect x="356" y="314" width="760" height="398" rx="24" fill="#F7F2EA"/>
  <rect x="388" y="346" width="214" height="18" rx="9" fill="#1F1A16"/>
  <rect x="388" y="396" width="696" height="92" rx="22" fill="#FFFDF9"/>
  <rect x="420" y="428" width="228" height="14" rx="7" fill="#7E766E"/>
  <rect x="420" y="456" width="164" height="14" rx="7" fill="#D7CDC0"/>
  <rect x="388" y="518" width="696" height="92" rx="22" fill="#FFFDF9"/>
  <rect x="420" y="550" width="248" height="14" rx="7" fill="#7E766E"/>
  <rect x="420" y="578" width="142" height="14" rx="7" fill="#D7CDC0"/>
  <rect x="388" y="640" width="696" height="40" rx="20" fill="#195D4D"/>
</svg>
