<svg width="1200" height="820" viewBox="0 0 1200 820" fill="none" xmlns="http://www.w3.org/2000/svg">
  <rect width="1200" height="820" rx="38" fill="#F4EEE6"/>
  <rect x="44" y="44" width="1112" height="732" rx="28" fill="#FFFDFA"/>
  <rect x="84" y="92" width="1032" height="92" rx="24" fill="#1F1A16"/>
  <rect x="122" y="128" width="198" height="20" rx="10" fill="#F4EEE6"/>
  <rect x="850" y="120" width="228" height="36" rx="18" fill="#195D4D"/>
  <rect x="84" y="216" width="320" height="512" rx="26" fill="#F0E6D8"/>
  <rect x="122" y="254" width="188" height="16" rx="8" fill="#1F1A16"/>
  <rect x="122" y="302" width="244" height="72" rx="18" fill="#FFFDFA"/>
  <rect x="122" y="396" width="244" height="72" rx="18" fill="#FFFDFA"/>
  <rect x="122" y="490" width="244" height="72" rx="18" fill="#FFFDFA"/>
  <rect x="122" y="584" width="244" height="72" rx="18" fill="#FFFDFA"/>
  <rect x="436" y="216" width="680" height="512" rx="26" fill="#F7F2EA"/>
  <rect x="474" y="258" width="198" height="18" rx="9" fill="#1F1A16"/>
  <rect x="474" y="314" width="604" height="54" rx="18" fill="#FFFDFA"/>
  <rect x="474" y="392" width="604" height="54" rx="18" fill="#FFFDFA"/>
  <rect x="474" y="470" width="604" height="54" rx="18" fill="#FFFDFA"/>
  <rect x="474" y="548" width="604" height="54" rx="18" fill="#FFFDFA"/>
  <rect x="474" y="634" width="186" height="44" rx="22" fill="#195D4D"/>
  <rect x="682" y="634" width="146" height="44" rx="22" fill="#E4D8C9"/>
</svg>
